<svg width="21" height="15" viewBox="0 0 21 15" fill="none" xmlns="http://www.w3.org/2000/svg">
<rect width="21" height="15" fill="#F5F5F5"/>
<g id="Kika Checkin">
<rect width="1920" height="1122" transform="matrix(-1 0 0 1 737 -820)" fill="#FFD451"/>
<g id="BLOBS" clip-path="url(#clip0_0_1)">
</g>
<g id="App wrapper">
<g id="App">
<g id="Main">
<rect width="1440" height="637" rx="16" transform="matrix(-1 0 0 1 497 -539.5)" fill="white"/>
<g id="Right column" clip-path="url(#clip1_0_1)">
<g id="Frame 25" clip-path="url(#clip2_0_1)">
<g id="arrow-down-338-svgrepo-com (1) 1" clip-path="url(#clip3_0_1)">
<g id="Page-1">
<g id="Dribbble-Light-Preview">
<g id="icons">
<g id="arrow_down-[#338]">
<mask id="path-2-inside-1_0_1" fill="white">
<path fill-rule="evenodd" clip-rule="evenodd" d="M0.306924 0.965471C-0.102308 1.48078 -0.102308 2.31522 0.306924 2.82921L8.98367 13.727C9.80318 14.7577 11.1327 14.7577 11.9522 13.727L20.6929 2.75029C21.098 2.24024 21.1032 1.41623 20.7034 0.899597C20.2952 0.372429 19.6226 0.366039 19.2082 0.885304L11.2103 10.9317C10.8 11.447 10.1358 11.447 9.72553 10.9317L1.79065 0.965471C1.38142 0.450152 0.717204 0.450152 0.306924 0.965471Z"/>
</mask>
<path fill-rule="evenodd" clip-rule="evenodd" d="M0.306924 0.965471C-0.102308 1.48078 -0.102308 2.31522 0.306924 2.82921L8.98367 13.727C9.80318 14.7577 11.1327 14.7577 11.9522 13.727L20.6929 2.75029C21.098 2.24024 21.1032 1.41623 20.7034 0.899597C20.2952 0.372429 19.6226 0.366039 19.2082 0.885304L11.2103 10.9317C10.8 11.447 10.1358 11.447 9.72553 10.9317L1.79065 0.965471C1.38142 0.450152 0.717204 0.450152 0.306924 0.965471Z" fill="#282120"/>
<path d="M0.306924 0.965471L-3.60472 -2.14886L-3.60857 -2.14402L0.306924 0.965471ZM0.306924 2.82921L-3.6047 5.94356L-3.60468 5.94359L0.306924 2.82921ZM8.98367 13.727L12.8972 10.6151L12.8953 10.6126L8.98367 13.727ZM11.9522 13.727L8.04076 10.6124L8.03859 10.6151L11.9522 13.727ZM20.6929 2.75029L24.6043 5.86493L24.6085 5.85967L20.6929 2.75029ZM20.7034 0.899597L24.6577 -2.16039L24.6568 -2.16151L20.7034 0.899597ZM19.2082 0.885304L15.3004 -2.23388L15.2964 -2.22883L19.2082 0.885304ZM11.2103 10.9317L15.1219 14.0461L15.1221 14.0459L11.2103 10.9317ZM9.72553 10.9317L5.81389 14.0461L5.81392 14.0461L9.72553 10.9317ZM1.79065 0.965471L-2.12488 4.07492L-2.12099 4.07981L1.79065 0.965471ZM-3.60857 -2.14402C-5.46197 0.18979 -5.46694 3.60459 -3.6047 5.94356L4.21855 -0.285137C4.82109 0.471654 5 1.28003 5 1.89783C5 2.51594 4.82104 3.32117 4.22241 4.07496L-3.60857 -2.14402ZM-3.60468 5.94359L5.07207 16.8414L12.8953 10.6126L4.21852 -0.28517L-3.60468 5.94359ZM5.0701 16.8389C6.32489 18.417 8.24761 19.5 10.4679 19.5C12.6882 19.5 14.6109 18.417 15.8657 16.8389L8.03859 10.6151C8.47387 10.0677 9.3221 9.5 10.4679 9.5C11.6137 9.5 12.462 10.0677 12.8972 10.6151L5.0701 16.8389ZM15.8636 16.8417L24.6043 5.86492L16.7815 -0.36435L8.04076 10.6124L15.8636 16.8417ZM24.6085 5.85967C26.4469 3.5446 26.4641 0.173877 24.6577 -2.16039L16.7491 3.95958C16.1686 3.20945 15.9964 2.41309 16.0001 1.79798C16.0037 1.18346 16.185 0.386835 16.7773 -0.359095L24.6085 5.85967ZM24.6568 -2.16151C23.6208 -3.49953 21.9701 -4.48099 20.0058 -4.49973C18.0388 -4.5185 16.3633 -3.56558 15.3004 -2.23388L23.1159 4.00449C22.4674 4.81693 21.3355 5.51341 19.9104 5.49981C18.4881 5.48624 17.3778 4.77156 16.75 3.9607L24.6568 -2.16151ZM15.2964 -2.22883L7.29851 7.81759L15.1221 14.0459L23.1199 3.99944L15.2964 -2.22883ZM7.2987 7.81736C7.93762 7.01488 9.05319 6.31821 10.4679 6.31821C11.8826 6.31821 12.9982 7.01488 13.6371 7.81736L5.81392 14.0461C6.86312 15.3639 8.51594 16.3182 10.4679 16.3182C12.4199 16.3182 14.0727 15.3639 15.1219 14.0461L7.2987 7.81736ZM13.6372 7.81739L5.70228 -2.14887L-2.12099 4.07981L5.81389 14.0461L13.6372 7.81739ZM5.70617 -2.14397C4.6568 -3.46539 3.00227 -4.42102 1.04918 -4.42102C-0.903101 -4.42102 -2.55581 -3.46631 -3.60472 -2.14886L4.21857 4.0798C3.57993 4.88193 2.46448 5.57898 1.04918 5.57898C-0.366922 5.57898 -1.48473 4.88102 -2.12488 4.07492L5.70617 -2.14397Z" fill="black" mask="url(#path-2-inside-1_0_1)"/>
</g>
</g>
</g>
</g>
</g>
</g>
</g>
</g>
</g>
</g>
</g>
<defs>
<clipPath id="clip0_0_1">
<rect width="1920" height="1122" fill="white" transform="translate(-1183 -820)"/>
</clipPath>
<clipPath id="clip1_0_1">
<rect width="492" height="493" fill="white" transform="translate(-67 -467.5)"/>
</clipPath>
<clipPath id="clip2_0_1">
<rect width="88" height="36" fill="white" transform="translate(-67 -10.5)"/>
</clipPath>
<clipPath id="clip3_0_1">
<rect width="21" height="14" fill="white" transform="translate(0 0.5)"/>
</clipPath>
</defs>
</svg>
